<svg width="280" height="242" viewBox="0 0 280 242" fill="none" xmlns="http://www.w3.org/2000/svg">
<path d="M208.742 158.038C182.997 200.183 132.465 182.96 89.7613 179.201C6.02058 171.82 -50.7424 282.855 -138.66 225.469C-236.004 161.933 -236.529 46.4796 -139.733 2.12508C131.141 -122.008 232.114 119.789 208.742 158.038Z" fill="#0A3A67"/>
<path d="M263.913 93.6652C268.284 93.6652 271.827 90.695 271.827 87.0311C271.827 83.3672 268.284 80.397 263.913 80.397C259.543 80.397 256 83.3672 256 87.0311C256 90.695 259.543 93.6652 263.913 93.6652Z" fill="#0A3A67"/>
<path d="M279.525 68.6341C279.525 70.6379 278.088 72.2681 276.322 72.2681C274.544 72.2681 273.118 70.6379 273.118 68.6341C273.118 66.6302 274.555 65 276.322 65C278.099 65 279.525 66.6302 279.525 68.6341Z" fill="#75013D"/>
</svg>
